<svg width="1080" height="844" viewBox="0 0 1080 844" fill="none" xmlns="http://www.w3.org/2000/svg">
<path d="M133.906 6.88135H973.122V311.765H874.681V528.755H17.0006L10.1711 132.769C8.9782 63.5971 64.7242 6.88135 133.906 6.88135Z" fill="white"/>
<path d="M973.121 8.5L133.906 6.88135C64.7242 6.88135 8.9782 63.5971 10.1711 132.769L17.0006 528.755H874.681V309.5M973.121 8.5L874.681 171.5V309.5M973.121 8.5V309.5H874.681" stroke="black" stroke-width="2.75032"/>
<path d="M1069.62 159.323C1069.62 201.194 1058.66 239.037 1041.01 266.37C1023.35 293.717 999.12 310.39 972.56 310.39C945.99 310.39 921.475 293.847 903.537 266.64C885.609 239.448 874.369 201.749 874.369 159.886C874.369 118.022 885.609 80.0391 903.541 52.5632C921.484 25.0699 946 8.25635 972.56 8.25635C999.12 8.25635 1023.35 24.9292 1041.01 52.2764C1058.66 79.6095 1069.62 117.453 1069.62 159.323Z" fill="white" stroke="black" stroke-width="2.75032"/>
<path d="M1011.16 158.761C1011.16 175.623 1006.75 190.825 999.678 201.769C992.602 212.727 982.989 219.263 972.579 219.263C962.169 219.263 952.556 212.727 945.48 201.769C938.413 190.825 933.997 175.623 933.997 158.761C933.997 141.899 938.413 126.698 945.48 115.754C952.556 104.796 962.169 98.2593 972.579 98.2593C982.989 98.2593 992.602 104.796 999.678 115.754C1006.75 126.698 1011.16 141.899 1011.16 158.761Z" fill="white" stroke="black" stroke-width="2.75032"/>
<path d="M350.414 120.87V115.246H355.049C356.148 115.246 356.624 115.32 357.064 115.521C358.126 115.979 358.951 116.822 358.951 118.068C358.951 119.35 358.126 120.174 357.064 120.614C356.587 120.797 356.111 120.87 355.067 120.87H350.414ZM350.414 131.642V125.487H356.734C357.925 125.487 358.474 125.578 358.969 125.78C360.141 126.238 361.002 127.209 361.002 128.546C361.002 129.975 360.086 130.891 358.969 131.349C358.456 131.55 357.906 131.642 356.771 131.642H350.414ZM344.937 136.625H357.852C360.013 136.625 361.442 136.222 362.651 135.526C364.904 134.207 366.407 131.807 366.407 128.766C366.407 125.908 364.74 123.71 362.468 122.446C363.549 121.218 364.172 119.753 364.172 118.123C364.172 115.008 362.614 112.645 360.288 111.363C359.116 110.722 357.723 110.374 355.635 110.374H344.937V136.625Z" fill="black"/>
<path d="M370.034 136.625H375.529V110.355H370.034V136.625Z" fill="black"/>
<path d="M400.352 112.608C398.117 111.088 395.461 110.337 392.585 110.337C385 110.337 379.193 116.126 379.193 123.49C379.193 131.129 385.312 136.625 392.585 136.625C400.15 136.625 405.921 130.873 405.921 123.49C405.921 122.189 405.756 120.907 405.408 119.716H392.127V124.772H400.37C399.619 129.206 396.395 131.605 392.585 131.605C387.877 131.605 384.781 127.868 384.781 123.49C384.781 118.892 387.95 115.301 392.585 115.301C394.343 115.301 395.9 115.833 397.256 116.84L400.352 112.608Z" fill="black"/>
<path d="M424.79 121.017V115.43H431.44C432.52 115.43 433.015 115.521 433.455 115.704C434.517 116.126 435.305 117.005 435.305 118.232C435.305 119.496 434.481 120.339 433.455 120.761C432.997 120.944 432.502 121.017 431.458 121.017H424.79ZM424.79 136.625V126.055H432.172C434.407 126.055 435.928 125.615 437.173 124.827C439.335 123.472 440.709 121.109 440.709 118.232C440.709 115.246 439.335 112.92 437.21 111.601C435.946 110.795 434.407 110.374 432.172 110.374H419.312V136.625H424.79Z" fill="black"/>
<path d="M449.484 136.625V126.018H454.43L460.64 136.625H466.942L460.274 125.469L460.512 125.377C461.904 124.901 463.132 124.058 464.048 122.721C464.909 121.475 465.385 119.936 465.385 118.232C465.385 115.228 464.011 112.902 461.886 111.601C460.622 110.795 459.083 110.374 456.848 110.374H444.006V136.625H449.484ZM449.484 120.999V115.43H456.115C457.196 115.43 457.691 115.503 458.131 115.704C459.193 116.126 459.981 117.005 459.981 118.232C459.981 119.478 459.156 120.321 458.131 120.742C457.673 120.944 457.178 120.999 456.134 120.999H449.484Z" fill="black"/>
<path d="M469.836 136.625H475.332V110.355H469.836V136.625Z" fill="black"/>
<path d="M485.756 136.625V120.009L501.345 136.625H504.331V110.355H498.854V126.989L483.264 110.355H480.278V136.625H485.756Z" fill="black"/>
<path d="M507.94 110.355V115.43H516.569V136.625H522.064V115.43H530.711V110.355H507.94Z" fill="black"/>
</svg>
