<svg width="820" height="700" viewBox="0 0 820 700" fill="none" xmlns="http://www.w3.org/2000/svg">
<g clip-path="url(#clip0_150_187)">
<g clip-path="url(#clip1_150_187)">
<mask id="path-1-inside-1_150_187" fill="white">
<path fill-rule="evenodd" clip-rule="evenodd" d="M802.337 326.072C804.469 244.228 736.159 176.056 649.762 173.805L642.041 470.188C728.438 472.439 800.205 407.916 802.337 326.072ZM749.712 320.56C751.102 267.189 706.556 222.732 650.216 221.265L645.181 414.541C701.521 416.009 748.322 373.932 749.712 320.56Z"/>
</mask>
<path fill-rule="evenodd" clip-rule="evenodd" d="M802.337 326.072C804.469 244.228 736.159 176.056 649.762 173.805L642.041 470.188C728.438 472.439 800.205 407.916 802.337 326.072ZM749.712 320.56C751.102 267.189 706.556 222.732 650.216 221.265L645.181 414.541C701.521 416.009 748.322 373.932 749.712 320.56Z" fill="white"/>
<path d="M649.762 173.805L649.854 170.26L646.309 170.167L646.217 173.713L649.762 173.805ZM802.337 326.072L805.882 326.164L805.882 326.164L802.337 326.072ZM642.041 470.188L638.496 470.096L638.404 473.641L641.949 473.734L642.041 470.188ZM650.216 221.265L650.308 217.72L646.763 217.627L646.67 221.172L650.216 221.265ZM749.712 320.56L746.167 320.468L746.167 320.468L749.712 320.56ZM645.181 414.541L641.636 414.449L641.543 417.994L645.088 418.086L645.181 414.541ZM649.67 177.35C734.292 179.555 800.868 246.272 798.792 325.979L805.882 326.164C808.07 242.184 738.026 172.557 649.854 170.26L649.67 177.35ZM645.587 470.281L653.307 173.897L646.217 173.713L638.496 470.096L645.587 470.281ZM798.792 325.979C796.715 405.687 726.756 468.847 642.134 466.643L641.949 473.734C730.121 476.031 803.695 410.145 805.882 326.164L798.792 325.979ZM650.123 224.81C704.689 226.232 747.501 269.233 746.167 320.468L753.257 320.653C754.703 265.145 708.423 219.233 650.308 217.72L650.123 224.81ZM648.726 414.633L653.761 221.357L646.67 221.172L641.636 414.449L648.726 414.633ZM746.167 320.468C744.832 371.703 699.839 412.417 645.273 410.996L645.088 418.086C703.204 419.6 751.811 376.161 753.257 320.653L746.167 320.468Z" fill="black" mask="url(#path-1-inside-1_150_187)"/>
<path d="M148.939 98.9486L153.816 573.325C153.982 589.485 161.839 604.772 175.809 612.895C319.957 696.707 540.928 681.497 640.526 595.862C651.174 586.707 656.402 573.065 656.905 559.032L672.831 114.636L148.939 98.9486Z" fill="white" stroke="black" stroke-width="3.54649"/>
<path d="M673.908 111.246C673.743 123.997 666.569 136.276 653.245 147.573C639.924 158.867 620.627 169.024 596.681 177.488C548.803 194.413 482.716 204.442 409.788 203.495C336.859 202.548 271.054 190.806 223.632 172.644C199.914 163.561 180.887 152.906 167.865 141.27C154.838 129.631 147.985 117.17 148.151 104.419C148.317 91.6686 155.49 79.3902 168.815 68.0927C182.135 56.7988 201.432 46.6422 225.378 38.1775C273.256 21.2532 339.344 11.2236 412.272 12.1706C485.2 13.1175 551.005 24.8598 598.427 43.0216C622.145 52.1051 641.172 62.7594 654.195 74.3954C667.222 86.035 674.074 98.4956 673.908 111.246Z" fill="white" stroke="black" stroke-width="3.54649"/>
<path d="M651.947 110.839C651.81 121.386 645.356 131.625 633.171 141.106C621.004 150.575 603.356 159.093 581.435 166.187C537.612 180.371 477.102 188.741 410.315 187.873C343.527 187.006 283.256 177.068 239.815 161.752C218.086 154.09 200.665 145.117 188.748 135.336C176.814 125.54 170.627 115.137 170.764 104.59C170.901 94.0433 177.355 83.8044 189.54 74.3224C201.707 64.8541 219.355 56.336 241.276 49.2415C285.1 35.0581 345.609 26.6882 412.397 27.5555C479.184 28.4227 539.456 38.361 582.896 53.6774C604.625 61.3388 622.046 70.3122 633.963 80.0933C645.898 89.8884 652.084 100.291 651.947 110.839Z" fill="white" stroke="black" stroke-width="3.54649"/>
<path d="M391.072 341.407C388.484 333.15 381.16 328.714 372.926 328.808C362.173 328.93 354.033 337.232 354.152 347.673C354.274 358.322 362.988 366.198 373.351 366.08C381.871 365.983 389.135 360.652 391.28 352.809L383.851 350.608C382.301 355.873 378.491 358.903 373.27 358.963C366.647 359.038 362.223 353.79 362.152 347.582C362.078 341.063 366.488 335.973 373.007 335.898C378.254 335.839 382.132 338.834 383.749 343.881L391.072 341.407Z" fill="black"/>
<path d="M395.368 328.578L395.598 348.785C395.617 350.421 395.817 352.03 396.198 353.532C398.02 360.733 403.819 365.758 411.922 365.666C420.026 365.573 425.682 360.417 427.34 353.177C427.661 351.667 427.85 350.054 427.831 348.418L427.601 328.21L419.835 328.299L420.067 348.636C420.08 349.831 419.938 351.001 419.639 352.122C418.718 355.613 416.178 358.422 411.814 358.471C407.503 358.521 404.9 355.771 403.873 352.302C403.549 351.188 403.379 350.021 403.366 348.826L403.134 328.489L395.368 328.578Z" fill="black"/>
<path d="M442.189 343.162L442.098 335.24L451.527 335.133C453.059 335.115 453.762 335.237 454.388 335.49C455.902 336.07 457.033 337.304 457.052 339.044C457.073 340.836 455.918 342.045 454.47 342.659C453.824 342.926 453.123 343.038 451.643 343.054L442.189 343.162ZM442.441 365.292L442.27 350.305L452.737 350.186C455.906 350.15 458.055 349.502 459.808 348.365C462.851 346.408 464.761 343.035 464.715 338.957C464.666 334.723 462.681 331.447 459.646 329.611C457.841 328.489 455.653 327.916 452.484 327.952L434.25 328.16L434.675 365.38L442.441 365.292Z" fill="black"/>
<path d="M339.605 404.626L339.515 396.704L348.943 396.597C350.476 396.579 351.178 396.701 351.805 396.954C353.318 397.534 354.449 398.768 354.469 400.508C354.489 402.301 353.334 403.509 351.887 404.123C351.24 404.39 350.54 404.502 349.06 404.519L339.605 404.626ZM339.858 426.756L339.687 411.769L350.154 411.65C353.323 411.614 355.471 410.966 357.225 409.829C360.268 407.872 362.178 404.499 362.131 400.421C362.083 396.187 360.097 392.911 357.063 391.075C355.258 389.953 353.069 389.38 349.9 389.416L331.667 389.624L332.091 426.844L339.858 426.756Z" fill="black"/>
<path d="M374.87 426.357L374.698 411.318L381.711 411.238L390.688 426.176L399.623 426.074L389.988 410.364L390.324 410.231C392.29 409.533 394.017 408.318 395.294 406.407C396.495 404.627 397.145 402.438 397.118 400.022C397.069 395.762 395.083 392.486 392.049 390.676C390.244 389.554 388.056 388.981 384.887 389.017L366.679 389.225L367.104 426.445L374.87 426.357ZM374.617 404.201L374.527 396.305L383.93 396.198C385.462 396.18 386.165 396.276 386.791 396.555C388.304 397.135 389.436 398.369 389.455 400.109C389.476 401.876 388.32 403.084 386.873 403.698C386.227 403.991 385.526 404.077 384.046 404.094L374.617 404.201Z" fill="black"/>
<path d="M403.727 426.028L411.519 425.939L411.094 388.693L403.302 388.781L403.727 426.028Z" fill="black"/>
<path d="M426.298 425.77L426.029 402.212L448.401 425.518L452.635 425.47L452.21 388.224L444.444 388.312L444.713 411.896L422.34 388.564L418.107 388.613L418.532 425.859L426.298 425.77Z" fill="black"/>
<path d="M457.327 388.165L457.409 395.36L469.642 395.22L469.985 425.272L477.777 425.183L477.435 395.132L489.694 394.992L489.612 387.797L457.327 388.165Z" fill="black"/>
</g>
</g>
<defs>
<clipPath id="clip0_150_187">
<rect width="820" height="700" fill="white"/>
</clipPath>
<clipPath id="clip1_150_187">
<rect width="895.735" height="700" fill="white" transform="translate(-38)"/>
</clipPath>
</defs>
</svg>
