<svg width="1080" height="844" viewBox="0 0 1080 844" fill="none" xmlns="http://www.w3.org/2000/svg">
<path d="M840.494 833.716H13L258.573 458.191H1066L840.494 833.716Z" fill="white" stroke="black" stroke-width="3.92015"/>
<path d="M840.494 612.032H13L258.573 236.506H1066L840.494 612.032Z" fill="white" stroke="black" stroke-width="3.92015"/>
<path d="M840.494 386.525H13L258.573 11H1066L840.494 386.525Z" fill="white" stroke="black" stroke-width="3.92015"/>
<path d="M405.309 194.51C402.925 186.834 396.133 182.696 388.485 182.763C378.497 182.85 370.916 190.541 371.001 200.24C371.087 210.131 379.162 217.468 388.788 217.384C396.702 217.314 403.463 212.381 405.474 205.101L398.579 203.038C397.126 207.925 393.58 210.731 388.731 210.773C382.578 210.827 378.482 205.941 378.432 200.175C378.379 194.119 382.487 189.402 388.543 189.349C393.416 189.306 397.012 192.098 398.501 196.79L405.309 194.51Z" fill="black"/>
<path d="M443.403 199.606C443.319 189.907 435.773 182.373 425.616 182.462C415.483 182.55 408.07 190.216 408.155 199.914C408.24 209.637 415.786 217.147 425.919 217.059C436.076 216.97 443.489 209.329 443.403 199.606ZM435.997 199.671C436.049 205.654 432.085 210.345 425.86 210.4C419.66 210.454 415.614 205.833 415.562 199.85C415.51 193.89 419.473 189.151 425.674 189.096C431.898 189.042 435.945 193.711 435.997 199.671Z" fill="black"/>
<path d="M448.101 182.241L448.404 216.862L472.748 216.649L472.689 209.966L455.584 210.116L455.339 182.177L448.101 182.241Z" fill="black"/>
<path d="M508.592 199.035C508.508 189.336 500.962 181.802 490.805 181.891C480.672 181.98 473.259 189.645 473.344 199.344C473.429 209.067 480.975 216.577 491.108 216.488C501.265 216.399 508.678 208.758 508.592 199.035ZM501.186 199.1C501.238 205.083 497.274 209.775 491.049 209.829C484.849 209.883 480.803 205.262 480.751 199.279C480.699 193.32 484.662 188.58 490.863 188.526C497.087 188.471 501.134 193.141 501.186 199.1Z" fill="black"/>
<path d="M520.807 216.228L520.685 202.259L527.199 202.202L535.5 216.099L543.799 216.027L534.889 201.411L535.201 201.287C537.029 200.644 538.636 199.52 539.827 197.748C540.947 196.098 541.556 194.066 541.536 191.822C541.502 187.865 539.666 184.817 536.852 183.129C535.178 182.082 533.146 181.544 530.203 181.57L513.291 181.718L513.593 216.291L520.807 216.228ZM520.627 195.648L520.563 188.314L529.296 188.237C530.72 188.225 531.372 188.316 531.953 188.576C533.358 189.119 534.405 190.268 534.419 191.884C534.434 193.525 533.358 194.644 532.011 195.211C531.411 195.482 530.76 195.56 529.385 195.572L520.627 195.648Z" fill="black"/>
<path d="M567.432 195.263L567.367 187.904L576.125 187.828C577.549 187.815 578.201 187.93 578.782 188.166C580.187 188.709 581.234 189.858 581.248 191.474C581.263 193.139 580.187 194.258 578.841 194.825C578.24 195.072 577.589 195.174 576.214 195.186L567.432 195.263ZM567.612 215.818L567.49 201.897L577.213 201.812C580.156 201.787 582.154 201.19 583.785 200.138C586.616 198.328 588.399 195.2 588.365 191.412C588.331 187.479 586.495 184.431 583.681 182.719C582.007 181.672 579.975 181.134 577.032 181.16L560.095 181.309L560.398 215.881L567.612 215.818Z" fill="black"/>
<path d="M600.134 215.534L600.012 201.564L606.526 201.507L614.827 215.405L623.126 215.332L614.216 200.716L614.528 200.593C616.356 199.95 617.963 198.826 619.154 197.054C620.274 195.403 620.883 193.371 620.863 191.127C620.829 187.171 618.993 184.123 616.179 182.434C614.505 181.387 612.473 180.85 609.53 180.876L592.618 181.024L592.92 215.597L600.134 215.534ZM599.954 194.954L599.89 187.619L608.623 187.543C610.047 187.531 610.699 187.621 611.28 187.882C612.685 188.424 613.732 189.573 613.746 191.19C613.761 192.83 612.685 193.95 611.338 194.516C610.738 194.787 610.087 194.865 608.712 194.877L599.954 194.954Z" fill="black"/>
<path d="M626.938 215.299L634.176 215.235L633.873 180.639L626.635 180.702L626.938 215.299Z" fill="black"/>
<path d="M647.904 215.115L647.712 193.233L668.435 214.936L672.368 214.901L672.065 180.304L664.851 180.367L665.043 202.274L644.32 180.547L640.387 180.581L640.69 215.178L647.904 215.115Z" fill="black"/>
<path d="M676.818 180.263L676.876 186.945L688.24 186.846L688.484 214.76L695.722 214.697L695.478 186.783L706.865 186.683L706.807 180L676.818 180.263Z" fill="black"/>
</svg>
