<svg width="600" height="650" viewBox="0 0 600 650" fill="none" xmlns="http://www.w3.org/2000/svg">
<g clip-path="url(#clip0_153_277)">
<path d="M18.9154 553.49L110.948 8.11361L581.613 97.3899L489.58 642.767L18.9154 553.49Z" fill="white" stroke="black" stroke-width="2.98897"/>
<g clip-path="url(#clip1_153_277)">
<rect x="0.952623" y="1.36474" width="394.308" height="369.122" transform="matrix(0.982482 0.186358 -0.163804 0.986493 146.505 43.2369)" fill="white" stroke="black" stroke-width="2.32722"/>
<path d="M8.51091 400.96L183.138 188.705L274.439 451.402L8.51091 400.96Z" fill="white" stroke="black" stroke-width="2.32722"/>
<path d="M100.123 416.116L240.518 229.928L312.395 456.38L100.123 416.116Z" fill="white" stroke="black" stroke-width="2.32722"/>
<rect x="0.952623" y="1.36474" width="394.308" height="369.122" transform="matrix(0.982482 0.186358 -0.163804 0.986493 146.505 43.2369)" stroke="black" stroke-width="2.32722"/>
</g>
<path d="M469.836 220.728C464.634 252.06 433.347 272.494 399.783 266.127C366.22 259.761 343.422 229.069 348.625 197.736C353.828 166.403 385.114 145.97 418.678 152.336C452.242 158.703 475.039 189.395 469.836 220.728Z" fill="white" stroke="black" stroke-width="2.98897"/>
<path d="M129.746 494.825L130.808 488.233L138.618 489.701C139.888 489.94 140.451 490.157 140.933 490.47C142.1 491.202 142.858 492.413 142.625 493.862C142.385 495.353 141.257 496.165 139.972 496.436C139.399 496.551 138.804 496.528 137.578 496.297L129.746 494.825ZM126.78 513.24L128.789 500.769L137.459 502.399C140.084 502.892 141.953 502.709 143.566 502.055C146.363 500.933 148.425 498.448 148.972 495.055C149.54 491.532 148.368 488.484 146.123 486.458C144.792 485.228 143.065 484.391 140.44 483.898L125.336 481.059L120.347 512.03L126.78 513.24Z" fill="black"/>
<path d="M174.609 490.299L172.833 501.322L158.999 498.721L160.775 487.698L154.342 486.489L149.349 517.482L155.782 518.692L158.035 504.708L171.869 507.309L169.616 521.292L176.071 522.506L181.064 491.512L174.609 490.299Z" fill="black"/>
<path d="M214.303 513.727C215.703 505.039 210.13 496.977 201.073 495.274C192.036 493.575 184.27 499.129 182.87 507.818C181.467 516.528 187.043 524.568 196.079 526.267C205.137 527.97 212.9 522.437 214.303 513.727ZM207.698 512.485C206.835 517.845 202.591 521.345 197.04 520.302C191.511 519.262 188.612 514.42 189.475 509.06C190.335 503.721 194.586 500.178 200.115 501.217C205.666 502.261 208.558 507.147 207.698 512.485Z" fill="black"/>
<path d="M218.026 498.461L217.062 504.448L227.195 506.353L223.167 531.359L229.621 532.573L233.65 507.566L243.805 509.475L244.77 503.488L218.026 498.461Z" fill="black"/>
<path d="M274.933 525.125C276.333 516.436 270.76 508.374 261.702 506.671C252.666 504.973 244.899 510.527 243.499 519.215C242.096 527.926 247.672 535.966 256.709 537.665C265.767 539.367 273.53 533.835 274.933 525.125ZM268.328 523.883C267.464 529.243 263.221 532.743 257.67 531.699C252.14 530.66 249.241 525.817 250.104 520.457C250.964 515.119 255.215 511.576 260.744 512.615C266.295 513.658 269.188 518.544 268.328 523.883Z" fill="black"/>
<path d="M297.563 526.373L298.625 519.781L306.435 521.249C307.705 521.487 308.268 521.705 308.75 522.018C309.917 522.75 310.675 523.961 310.442 525.409C310.202 526.9 309.074 527.713 307.789 527.983C307.216 528.098 306.621 528.075 305.395 527.845L297.563 526.373ZM294.597 544.787L296.606 532.316L305.276 533.946C307.901 534.44 309.77 534.257 311.383 533.602C314.18 532.48 316.242 529.995 316.789 526.602C317.357 523.079 316.185 520.031 313.94 518.006C312.609 516.776 310.882 515.939 308.257 515.445L293.153 512.606L288.164 543.578L294.597 544.787Z" fill="black"/>
<path d="M323.599 550.239L325.615 537.725L331.424 538.817L336.702 552.702L344.103 554.094L338.392 539.459L338.689 539.404C340.414 539.149 342.016 538.426 343.346 537.05C344.594 535.771 345.446 534.06 345.77 532.05C346.341 528.506 345.169 525.457 342.921 523.454C341.59 522.224 339.862 521.387 337.238 520.893L322.156 518.058L317.166 549.03L323.599 550.239ZM326.569 531.803L327.627 525.233L335.416 526.697C336.685 526.936 337.252 527.131 337.73 527.466C338.898 528.198 339.656 529.409 339.423 530.857C339.186 532.327 338.058 533.139 336.773 533.41C336.197 533.546 335.605 533.502 334.379 533.271L326.569 531.803Z" fill="black"/>
<path d="M347.502 554.733L353.957 555.946L358.95 524.953L352.495 523.739L347.502 554.733Z" fill="black"/>
<path d="M366.199 558.247L369.357 538.644L384.508 561.689L388.015 562.349L393.008 531.355L386.575 530.146L383.413 549.771L368.266 526.704L364.759 526.045L359.766 557.038L366.199 558.247Z" fill="black"/>
<path d="M397.246 532.152L396.282 538.139L406.415 540.044L402.387 565.05L408.841 566.264L412.87 541.257L423.025 543.166L423.989 537.179L397.246 532.152Z" fill="black"/>
</g>
<defs>
<clipPath id="clip0_153_277">
<rect width="600" height="650" fill="white"/>
</clipPath>
<clipPath id="clip1_153_277">
<rect width="396.635" height="371.449" fill="white" transform="matrix(0.982482 0.186358 -0.163804 0.986493 146.265 43.396)"/>
</clipPath>
</defs>
</svg>
