<svg width="570" height="300" viewBox="0 0 570 300" fill="none" xmlns="http://www.w3.org/2000/svg">
<path d="M60.0707 165.411L528.967 190.502L552.991 270.164L548.081 295.831L9.93808 275.875L8.25772 252.213L48.9415 171.848C51.0481 167.687 55.4133 165.162 60.0707 165.411Z" fill="white"/>
<path d="M552.991 270.164L528.967 190.502L60.0707 165.411C55.4133 165.162 51.0481 167.687 48.9415 171.848L8.25772 252.213M552.991 270.164L548.081 295.831L9.93808 275.875L8.25772 252.213M552.991 270.164L8.25772 252.213M95.8089 190.896L92.9239 200.759M88.5492 216.437L85.6957 225.713" stroke="black" stroke-width="2.35384" stroke-linecap="round"/>
<path d="M566.595 171.121L544.606 240.661L257.178 171.757L55.2723 145.529L56.4437 123.637L25.6063 116.244L40.4589 52.8049L46.6166 26.5034C48.9502 16.5363 58.8185 10.259 68.8351 12.3701L526.606 108.853C533.774 110.363 539.829 115.125 542.988 121.734L566.595 171.121Z" fill="white"/>
<path d="M566.595 171.121L544.606 240.661L257.178 171.757M566.595 171.121L542.988 121.734C539.829 115.125 533.774 110.363 526.606 108.853L68.8351 12.3701C58.8185 10.259 48.9502 16.5363 46.6166 26.5034L40.4589 52.8049M566.595 171.121L40.4589 52.8049M40.4589 52.8049L25.6063 116.244L56.4437 123.637M56.4437 123.637L55.2723 145.529L257.178 171.757M56.4437 123.637L257.178 171.757" stroke="black" stroke-width="2.35384"/>
<path d="M214.128 125.528L215.137 121.175L220.317 122.377C221.159 122.572 221.528 122.733 221.837 122.955C222.589 123.475 223.044 124.302 222.822 125.258C222.594 126.243 221.799 126.75 220.924 126.893C220.534 126.953 220.136 126.921 219.322 126.732L214.128 125.528ZM211.309 137.686L213.218 129.452L218.969 130.785C220.71 131.189 221.973 131.121 223.086 130.733C225.015 130.067 226.512 128.475 227.031 126.234C227.571 123.908 226.921 121.848 225.504 120.437C224.665 119.58 223.542 118.974 221.801 118.571L211.784 116.248L207.042 136.696L211.309 137.686Z" fill="black"/>
<path d="M248.5 135.528C249.83 129.792 246.449 124.271 240.441 122.878C234.448 121.488 228.982 124.957 227.651 130.694C226.318 136.444 229.702 141.951 235.696 143.341C241.703 144.734 247.166 141.279 248.5 135.528ZM244.119 134.513C243.298 138.051 240.291 140.256 236.609 139.402C232.942 138.552 231.212 135.249 232.032 131.71C232.85 128.185 235.864 125.952 239.531 126.802C243.213 127.656 244.936 130.988 244.119 134.513Z" fill="black"/>
<path d="M248.86 142.664C251.11 145.863 254.032 147.593 256.758 148.225C261.153 149.244 265.179 147.381 266.016 143.771C267.092 139.133 263.193 137.011 259.886 135.643C257.102 134.486 255.507 133.71 255.819 132.369C256.103 131.141 257.813 130.967 259.311 131.314C261.152 131.741 262.977 132.886 264.068 134.342L267.198 131.865C265.343 129.555 262.848 128.059 260.265 127.46C255.599 126.378 252.369 128.441 251.591 131.794C250.83 135.076 253.239 137.139 256.498 138.646C259.363 139.972 262.261 140.9 261.818 142.812C261.454 144.382 259.347 144.645 257.606 144.242C255.366 143.722 253.477 142.141 252.14 140.192L248.86 142.664Z" fill="black"/>
<path d="M269.837 129.695L268.92 133.648L275.641 135.206L271.812 151.716L276.093 152.709L279.922 136.199L286.657 137.761L287.574 133.808L269.837 129.695Z" fill="black"/>
<path d="M300.175 145.482L301.184 141.129L306.364 142.331C307.206 142.526 307.575 142.687 307.884 142.909C308.636 143.429 309.09 144.256 308.869 145.212C308.64 146.197 307.846 146.704 306.971 146.847C306.581 146.907 306.182 146.875 305.369 146.686L300.175 145.482ZM297.355 157.64L299.265 149.406L305.015 150.74C306.756 151.143 308.02 151.075 309.133 150.687C311.062 150.021 312.559 148.429 313.078 146.188C313.618 143.862 312.968 141.802 311.551 140.391C310.712 139.534 309.589 138.928 307.848 138.525L297.831 136.202L293.089 156.65L297.355 157.64Z" fill="black"/>
<path d="M316.591 162.1L318.507 153.838L322.36 154.732L325.281 164.116L330.19 165.254L327.011 155.359L327.213 155.331C328.384 155.211 329.492 154.777 330.447 153.9C331.343 153.085 331.992 151.973 332.3 150.646C332.842 148.306 332.192 146.245 330.772 144.848C329.933 143.992 328.81 143.386 327.069 142.982L317.066 140.662L312.324 161.111L316.591 162.1ZM319.414 149.928L320.42 145.59L325.585 146.788C326.427 146.983 326.799 147.13 327.105 147.366C327.857 147.886 328.312 148.714 328.09 149.67C327.865 150.64 327.071 151.147 326.195 151.29C325.802 151.365 325.407 151.318 324.594 151.129L319.414 149.928Z" fill="black"/>
<path d="M337.19 145.314L332.445 165.777L346.843 169.116L347.756 165.177L337.639 162.831L338.873 157.508L346.593 159.299L347.497 155.403L339.777 153.613L340.558 150.245L350.675 152.591L351.588 148.653L337.19 145.314Z" fill="black"/>
<path d="M349.776 166.066C352.026 169.265 354.948 170.995 357.674 171.627C362.069 172.646 366.095 170.783 366.932 167.173C368.007 162.535 364.109 160.413 360.802 159.045C358.018 157.888 356.423 157.112 356.734 155.771C357.019 154.544 358.729 154.369 360.227 154.716C362.068 155.143 363.892 156.288 364.983 157.744L368.114 155.267C366.259 152.957 363.764 151.461 361.181 150.862C356.515 149.78 353.284 151.843 352.507 155.196C351.746 158.478 354.155 160.541 357.414 162.049C360.279 163.375 363.177 164.302 362.733 166.214C362.369 167.784 360.263 168.047 358.522 167.644C356.282 167.124 354.393 165.543 353.056 163.594L349.776 166.066Z" fill="black"/>
<path d="M368.041 170.302C370.292 173.501 373.213 175.231 375.939 175.863C380.334 176.882 384.36 175.019 385.197 171.409C386.273 166.771 382.374 164.649 379.067 163.281C376.283 162.124 374.689 161.348 375 160.006C375.284 158.779 376.994 158.604 378.492 158.952C380.333 159.379 382.158 160.524 383.249 161.98L386.379 159.503C384.524 157.193 382.029 155.697 379.446 155.098C374.78 154.016 371.55 156.079 370.772 159.432C370.011 162.714 372.42 164.777 375.679 166.284C378.545 167.61 381.442 168.538 380.999 170.45C380.635 172.02 378.529 172.283 376.788 171.879C374.547 171.36 372.658 169.779 371.321 167.83L368.041 170.302Z" fill="black"/>
<circle cx="525.872" cy="194.283" r="11.7692" transform="rotate(3.06296 525.872 194.283)" fill="white" stroke="black" stroke-width="2.35384"/>
</svg>
